Coordinates
version=1
nRows=12
nColumns=24
inDegrees=yes

Units are S.I. units (second, meters, Newtons, ...)
Angles are in degrees.

endheader
time	pelvis_tilt	pelvis_list	pelvis_rotation	pelvis_tx	pelvis_ty	pelvis_tz	hip_flexion_r	hip_adduction_r	hip_rotation_r	knee_angle_r	ankle_angle_r	subtalar_angle_r	mtp_angle_r	hip_flexion_l	hip_adduction_l	hip_rotation_l	knee_angle_l	ankle_angle_l	subtalar_angle_l	mtp_angle_l	lumbar_extension	lumbar_bending	lumbar_rotation
      0.91533333	     -7.10752284	      0.89572294	     -2.09880039	     -0.10840840	      1.03908930	      0.29651167	     -2.21336489	     -0.80630995	     -1.65907265	    -15.30123702	     21.98369627	     -1.00414775	      1.40260234	     33.08321978	     -2.46499848	      0.99883706	    -11.55406932	      8.79993772	      6.60673577	      5.47918795	     -3.20438624	      1.24411597	      7.58620100
      0.91950000	     -7.07156703	      0.89029419	     -2.28007079	     -0.10202187	      1.03804142	      0.29625436	     -2.40080420	     -0.86773663	     -1.55526453	    -15.76688748	     22.07945735	     -0.97496692	      1.40651011	     33.05986835	     -2.52238131	      1.04485662	    -11.78093712	      8.82662494	      6.56529219	      5.48413752	     -3.21658092	      1.22097984	      7.59540103
      0.92366667	     -6.97855800	      0.91024746	     -2.46263701	     -0.09558591	      1.03709931	      0.29598397	     -2.60845449	     -0.97962051	     -1.56927490	    -16.32497246	     22.27933195	     -0.66038423	      1.43732817	     32.96809104	     -2.54982347	      1.02933740	    -12.07581835	      8.81540314	      6.56042134	      5.51015574	     -3.27440743	      1.11602334	      7.71138967
      0.92783333	     -6.92088209	      0.91600288	     -2.63884110	     -0.08914312	      1.03611706	      0.29571080	     -2.76501609	     -1.06725461	     -1.48821174	    -16.91478420	     22.40097825	     -0.50279440	      1.47538689	     32.92489257	     -2.58159512	      1.03930648	    -12.46726568	      8.78034763	      6.51986519	      5.53353765	     -3.29807064	      1.04305698	      7.74043078
      0.93200000	     -6.85097759	      0.93779606	     -2.79658269	     -0.08264881	      1.03518724	      0.29537507	     -2.90075771	     -1.18767761	     -1.50148554	    -17.58207326	     22.48636675	     -0.26818355	      1.55590412	     32.87080218	     -2.58115935	      1.01758714	    -12.93080537	      8.69689697	      6.48378762	      5.57520755	     -3.31534854	      0.95322883	      7.79062451
      0.93616667	     -6.75980422	      0.95446055	     -2.94453350	     -0.07615562	      1.03431571	      0.29502221	     -3.04000826	     -1.30518031	     -1.49257120	    -18.29018530	     22.54129653	     -0.03017646	      1.74209332	     32.80109916	     -2.57331301	      1.00806308	    -13.46851087	      8.59691266	      6.42340486	      5.65833081	     -3.36316688	      0.86595506	      7.81715059
      0.94033333	     -6.67927938	      0.97731153	     -3.09894310	     -0.06964779	      1.03346454	      0.29469430	     -3.13891098	     -1.42666242	     -1.42765238	    -19.05884509	     22.55942334	      0.11337334	      1.83093298	     32.73634992	     -2.56127082	      0.97741362	    -14.04451126	      8.42404150	      6.37017051	      5.68891208	     -3.39719676	      0.76454239	      7.79880587
      0.94450000	     -6.58573965	      1.00200292	     -3.20596474	     -0.06310303	      1.03264546	      0.29423592	     -3.21814984	     -1.57139360	     -1.51978776	    -19.90979322	     22.54604421	      0.41964732	      2.03909368	     32.67241586	     -2.51379462	      0.96838013	    -14.68919598	      8.24325929	      6.32976522	      5.75501445	     -3.43133885	      0.65662313	      7.80175951
      0.94866667	     -6.51026042	      1.01276049	     -3.33731315	     -0.05658069	      1.03184488	      0.29383190	     -3.25037522	     -1.69292189	     -1.49269962	    -20.80583920	     22.48447881	      0.63903765	      2.22131238	     32.62721011	     -2.49211267	      0.94160445	    -15.37512999	      8.01320117	      6.25220652	      5.80332396	     -3.45412196	      0.56757066	      7.76293634
      0.95283333	     -6.38088944	      1.03524948	     -3.40997311	     -0.05004898	      1.03116213	      0.29328145	     -3.31689764	     -1.84670071	     -1.59706557	    -21.75357924	     22.31297438	      0.84611054	      5.25987531	     32.51800908	     -2.40843599	      1.03027562	    -16.06113925	      7.69728513	      6.01159486	      6.54516851	     -3.53841516	      0.45188313	      7.71901849
      0.95700000	     -6.33103980	      1.02483535	     -3.50363133	     -0.04350801	      1.03037483	      0.29277720	     -3.25948692	     -1.95658371	     -1.62911976	    -22.77900619	     22.09878771	      1.07976491	      5.32149209	     32.52939442	     -2.38859610	      0.96952906	    -16.85744142	      7.48802573	      6.04749281	      6.54900529	     -3.51027536	      0.39338683	      7.65929715
      0.96116667	     -6.22725221	      1.03640799	     -3.56321624	     -0.03697364	      1.02972784	      0.29219421	     -3.22957621	     -2.10536249	     -1.73507545	    -23.86789568	     21.87133873	      1.35428796	      5.43737559	     32.47283209	     -2.31670525	      0.97721227	    -17.64247329	      7.23037282	      5.99186523	      6.55256815	     -3.56230248	      0.29173025	      7.58199010
